<svg width="50" height="50" viewBox="0 0 50 50" fill="none" xmlns="http://www.w3.org/2000/svg">
    <g clip-path="url(#clip0_2_294)">
        <mask id="mask0_2_294" style="mask-type:luminance" maskUnits="userSpaceOnUse" x="0" y="0" width="50" height="50">
            <path d="M0 0.0614014H49.9386V50H0V0.0614014Z" fill="white"/>
        </mask>
        <g mask="url(#mask0_2_294)">
            <path d="M48.9978 22.807L27.1934 1.00429C26.8948 0.705407 26.5401 0.468311 26.1498 0.306547C25.7594 0.144784 25.341 0.0615234 24.9184 0.0615234C24.4959 0.0615234 24.0775 0.144784 23.6871 0.306547C23.2968 0.468311 22.9421 0.705407 22.6434 1.00429L18.1174 5.53255L23.8598 11.2749C24.5349 11.0457 25.2607 11.0099 25.9551 11.1716C26.6495 11.3333 27.2848 11.6862 27.7891 12.1902C28.2962 12.6978 28.6502 13.3379 28.8106 14.0373C28.9711 14.7367 28.9314 15.4671 28.6962 16.145L34.2326 21.6798C34.9107 21.4443 35.6414 21.4046 36.341 21.5654C37.0406 21.7261 37.6807 22.0807 38.188 22.5885C38.5434 22.9438 38.8253 23.3656 39.0176 23.8299C39.2099 24.2941 39.3089 24.7917 39.3089 25.2942C39.3089 25.7967 39.2099 26.2943 39.0176 26.7586C38.8253 27.2228 38.5434 27.6446 38.188 27.9999C37.4696 28.7176 36.4956 29.1208 35.4801 29.1208C34.4646 29.1208 33.4907 28.7176 32.7723 27.9999C32.2386 27.4654 31.8749 26.7849 31.7272 26.0441C31.5794 25.3033 31.6541 24.5353 31.9418 23.8369L26.7788 18.6755V32.2608C27.3237 32.53 27.7967 32.9252 28.1585 33.4135C28.5204 33.9019 28.7606 34.4695 28.8594 35.0692C28.9582 35.669 28.9127 36.2836 28.7267 36.8623C28.5407 37.4409 28.2194 37.9669 27.7896 38.3967C27.4343 38.752 27.0125 39.0339 26.5483 39.2263C26.084 39.4186 25.5864 39.5176 25.0839 39.5176C24.5814 39.5176 24.0838 39.4186 23.6196 39.2263C23.1553 39.0339 22.7335 38.752 22.3782 38.3967C22.0228 38.0414 21.7408 37.6195 21.5485 37.1552C21.3561 36.6909 21.2571 36.1933 21.2571 35.6907C21.2571 35.1881 21.3561 34.6905 21.5485 34.2262C21.7408 33.7619 22.0228 33.34 22.3782 32.9847C22.7363 32.6259 23.1619 32.3417 23.6304 32.1483V18.438C23.1638 18.2458 22.7397 17.9633 22.3826 17.6067C22.0255 17.2501 21.7423 16.8265 21.5494 16.3602C21.3565 15.8939 21.2576 15.394 21.2585 14.8894C21.2593 14.3847 21.3599 13.8852 21.5543 13.4195L15.8924 7.75646L0.940185 22.7048C0.337662 23.3085 -0.000732422 24.1266 -0.000732422 24.9796C-0.000732422 25.8325 0.337662 26.6506 0.940185 27.2543L22.7456 49.0597C23.3493 49.6621 24.1673 50.0004 25.0201 50.0004C25.8729 50.0004 26.6909 49.6621 27.2945 49.0597L48.9978 27.3565C49.6003 26.7528 49.9387 25.9347 49.9387 25.0817C49.9387 24.2288 49.6003 23.4107 48.9978 22.807Z" fill="#F03C2E"/>
        </g>
    </g>
    <defs>
        <clipPath id="clip0_2_294">
            <rect width="50" height="50" fill="white"/>
        </clipPath>
    </defs>
</svg>
