<svg width="17" height="14" viewBox="0 0 17 14" fill="none" xmlns="http://www.w3.org/2000/svg">
    <path d="M8.97498 0C7.9244 0 6.88411 0.184756 5.91351 0.543718C4.9429 0.90268 4.06099 1.42882 3.31812 2.09209C1.81783 3.43164 0.974976 5.24845 0.974976 7.14286C0.974976 10.3 3.27098 12.9786 6.44698 13.9286C6.84698 13.9857 6.97498 13.7643 6.97498 13.5714V12.3643C4.75898 12.7929 4.28698 11.4071 4.28698 11.4071C3.91898 10.5786 3.39898 10.3571 3.39898 10.3571C2.67098 9.91429 3.45498 9.92857 3.45498 9.92857C4.25498 9.97857 4.67898 10.6643 4.67898 10.6643C5.37498 11.75 6.55098 11.4286 7.00698 11.2571C7.07898 10.7929 7.28698 10.4786 7.51098 10.3C5.73498 10.1214 3.87098 9.50714 3.87098 6.78571C3.87098 5.99286 4.17498 5.35714 4.69498 4.85C4.61498 4.67143 4.33498 3.92857 4.77498 2.96429C4.77498 2.96429 5.44698 2.77143 6.97498 3.69286C7.60698 3.53571 8.29498 3.45714 8.97498 3.45714C9.65498 3.45714 10.343 3.53571 10.975 3.69286C12.503 2.77143 13.175 2.96429 13.175 2.96429C13.615 3.92857 13.335 4.67143 13.255 4.85C13.775 5.35714 14.079 5.99286 14.079 6.78571C14.079 9.51429 12.207 10.1143 10.423 10.2929C10.711 10.5143 10.975 10.95 10.975 11.6143V13.5714C10.975 13.7643 11.103 13.9929 11.511 13.9286C14.687 12.9714 16.975 10.3 16.975 7.14286C16.975 6.20484 16.7681 5.27602 16.366 4.4094C15.964 3.54279 15.3747 2.75537 14.6318 2.09209C13.889 1.42882 13.007 0.90268 12.0364 0.543718C11.0658 0.184756 10.0256 0 8.97498 0Z" fill="white"/>
</svg>
