<svg width="104" height="50" viewBox="0 0 104 50" fill="none" xmlns="http://www.w3.org/2000/svg">
    <path d="M6.93359 44.9219L2.92969 0H46.9727L42.9688 44.9219L24.9023 50" fill="#E34F26"/>
    <path d="M25 46.0938L39.5508 42.0898L42.9688 3.61328H25" fill="#EF652A"/>
    <path d="M25 20.3125H17.6758L17.1875 14.6484H25V9.17969H24.9023H11.1328L11.2305 10.6445L12.5977 25.8789H25V20.3125ZM25 34.668H24.9023L18.75 33.0078L18.3594 28.6133H15.4297H12.8906L13.5742 37.3047L24.9023 40.4297H25V34.668Z" fill="#EBEBEB"/>
    <path d="M24.9023 20.3125V25.8789H31.7383L31.0547 33.0078L24.9023 34.668V40.4297L36.2305 37.3047L36.3281 36.3281L37.5977 21.7773L37.793 20.3125H36.2305H24.9023ZM24.9023 9.17969V12.5977V14.6484H38.2812L38.3789 13.4766L38.6719 10.6445L38.7695 9.17969H24.9023Z" fill="white"/>
    <path d="M59 0.00148974C73.6974 0.000199587 88.3935 -0.00109056 103.091 0.00148974C102.282 9.14221 101.486 18.2829 100.643 27.4211C100.143 33.2616 99.6269 39.1021 99.0824 44.9387C95.9461 45.7696 92.8407 46.7166 89.7056 47.5513C86.826 48.3963 83.9231 49.1614 81.0422 50H80.9571C78.2155 49.1846 75.4468 48.4673 72.7053 47.6519C69.4696 46.7798 66.2623 45.807 63.0253 44.9387C62.6034 40.5638 62.2228 36.1864 61.8474 31.8089C61.1391 23.7209 60.3689 15.6381 59.6877 7.54887C59.4516 5.11436 59.2825 2.6721 59 0.242748V0.00148974ZM81.1145 3.60746C81.0835 5.36336 81.1377 7.12054 81.0835 8.87515C76.0416 8.85709 70.9984 8.87128 65.9565 8.87644C66.0429 10.5807 66.2713 12.2734 66.5061 13.9635C71.1971 14.1377 75.8945 13.9571 80.5855 14.0977C76.4815 15.9387 72.3273 17.6727 68.2052 19.475C67.8517 19.6324 67.4737 19.7511 67.1576 19.9808C67.1925 21.8528 67.4944 23.7145 67.6272 25.5826C70.1276 25.5736 72.6266 25.5336 75.1269 25.5297C77.1305 25.5194 79.1354 25.5594 81.139 25.5155C81.0435 28.5938 81.1687 31.676 81.0745 34.7543C79.7263 34.5543 78.3948 34.2537 77.0518 34.015C75.9926 33.7841 74.9076 33.6641 73.8638 33.3609C73.7155 31.8837 73.6123 30.4013 73.4807 28.9228C73.1788 28.8299 72.8588 28.8389 72.5466 28.8338C71.0319 28.8428 69.516 28.8286 68.0001 28.8518C68.1485 31.694 68.4039 34.5324 68.8387 37.3475C70.3327 37.7371 71.8293 38.119 73.3207 38.5254C75.6055 39.1473 77.9188 39.6646 80.2075 40.2761C80.4797 40.3342 80.7545 40.4348 81.0371 40.4116C81.1893 42.281 81.0719 44.1621 81.1003 46.0367C81.628 45.9515 82.1466 45.8212 82.6562 45.6638C86.9885 44.4872 91.3157 43.2886 95.6455 42.1004C95.8609 40.3974 95.9615 38.6828 96.1318 36.9759C96.5821 31.7869 97.0362 26.598 97.5084 21.4103C98.0619 15.4756 98.5405 9.53442 99.0979 3.59972C93.1026 3.60488 87.1085 3.58811 81.1145 3.60746Z" fill="#0170BA"/>
    <path d="M81.1145 3.6075C87.1086 3.58815 93.1026 3.60492 99.0979 3.59976C98.5406 9.53446 98.0619 15.4756 97.5085 21.4103C97.0363 26.598 96.5821 31.787 96.1319 36.976C95.9616 38.6828 95.8609 40.3974 95.6455 42.1004C91.3157 43.2887 86.9886 44.4872 82.6562 45.6638C82.1466 45.8212 81.628 45.9515 81.1003 46.0367C81.0719 44.1621 81.1893 42.2811 81.0371 40.4116C81.0758 40.4039 81.1545 40.3884 81.1932 40.3807C85.2224 39.3692 89.2244 38.2558 93.2445 37.2082C93.7528 31.5057 94.3166 25.8058 94.674 20.0918C91.2551 20.1098 87.8349 20.0995 84.416 20.1137C83.918 20.1163 83.42 20.1137 82.9246 20.0776C84.7644 19.1306 86.6996 18.3797 88.5884 17.5347C90.401 16.7129 92.2356 15.9426 94.0547 15.1363C94.4057 14.975 94.7798 14.8408 95.0881 14.6009C95.2094 14.1558 95.203 13.69 95.2507 13.2346C95.3552 11.7896 95.541 10.3524 95.6107 8.90615C90.7687 8.86745 85.9268 8.90099 81.0836 8.87519C81.1377 7.12058 81.0836 5.3634 81.1145 3.6075Z" fill="#29A9DF"/>
    <path d="M81.1389 25.5156C83.4767 25.4756 85.8157 25.5388 88.1548 25.5233C88.0244 27.914 87.8258 30.3007 87.7019 32.6914C86.2685 33.1597 84.8133 33.5558 83.3683 33.9893C82.5981 34.2241 81.8072 34.4099 81.0744 34.7543C81.1686 31.676 81.0434 28.5939 81.1389 25.5156Z" fill="#29A9DF"/>
    <path d="M65.9565 8.87652C70.9985 8.87136 76.0417 8.85717 81.0836 8.87523C81.1494 14.4229 81.0668 19.9705 81.139 25.5156C79.1354 25.5595 77.1305 25.5195 75.1269 25.5298C72.6266 25.5337 70.1276 25.5736 67.6273 25.5827C67.4944 23.7145 67.1925 21.8529 67.1577 19.9808C67.4738 19.7512 67.8518 19.6325 68.2053 19.4751C72.3273 17.6728 76.4816 15.9388 80.5856 14.0978C75.8946 13.9571 71.1971 14.1378 66.5061 13.9636C66.2713 12.2735 66.043 10.5808 65.9565 8.87652Z" fill="#CFCFCF"/>
    <path d="M68.0002 28.8519C69.5161 28.8287 71.032 28.8429 72.5467 28.8339C72.8589 28.839 73.1788 28.83 73.4807 28.9229C73.6123 30.4014 73.7156 31.8838 73.8639 33.361C74.9077 33.6642 75.9927 33.7842 77.0519 34.0151C78.3949 34.2538 79.7264 34.5544 81.0746 34.7544C81.2036 36.6277 80.9778 38.5139 81.1933 40.3807C81.1546 40.3885 81.0759 40.4039 81.0372 40.4117C80.7546 40.4349 80.4798 40.3343 80.2076 40.2762C77.9189 39.6647 75.6056 39.1473 73.3208 38.5255C71.8294 38.1191 70.3328 37.7372 68.8388 37.3476C68.404 34.5325 68.1486 31.6941 68.0002 28.8519Z" fill="#CFCFCF"/>
    <path d="M81.0835 8.87512C85.9267 8.90093 90.7687 8.86738 95.6106 8.90608C95.5409 10.3523 95.3551 11.7896 95.2506 13.2345C95.2029 13.69 95.2094 14.1557 95.0881 14.6008C94.7797 14.8408 94.4056 14.975 94.0547 15.1362C92.2356 15.9426 90.401 16.7128 88.5883 17.5346C86.6995 18.3797 84.7643 19.1305 82.9245 20.0775C83.42 20.1136 83.918 20.1162 84.416 20.1136C87.8349 20.0994 91.255 20.1098 94.6739 20.0917C94.3166 25.8058 93.7528 31.5057 93.2445 37.2081C89.2243 38.2557 85.2223 39.3691 81.1932 40.3806C80.9777 38.5138 81.2035 36.6276 81.0745 34.7543C81.8073 34.4098 82.5981 34.224 83.3684 33.9892C84.8133 33.5557 86.2686 33.1596 87.702 32.6913C87.8258 30.3007 88.0245 27.9139 88.1548 25.5232C85.8158 25.5387 83.4767 25.4755 81.139 25.5155C81.0667 19.9704 81.1493 14.4228 81.0835 8.87512Z" fill="white"/>
</svg>
