<svg width="50" height="50" viewBox="0 0 50 50" fill="none" xmlns="http://www.w3.org/2000/svg">
    <path d="M3.125 27.4219L15.5781 22.3906C16.8422 20.7202 18.2655 19.1765 19.8281 17.7812C20.8594 17.2344 22.7969 17.5312 26.3438 13.125C29.7813 8.82812 30.875 5.15625 32.4844 5.15625C35.0313 5.15625 36.9062 10.6562 39.75 18.9844C41.7776 25.3456 44.1562 31.5896 46.875 37.6875C43.9062 34.9219 41.375 31.9375 38.4844 32.0156C35.7969 32.0781 32.8125 35.2656 29.5469 39.3594C26.9531 42.6406 23.5156 44.8906 22.1719 44.8438C22.1719 44.8438 18.7031 35.0312 15.7969 33.4375C15.1939 33.1912 14.5412 33.0911 13.8922 33.1454C13.2431 33.1997 12.6161 33.4069 12.0625 33.75L3.125 27.4063V27.4219Z" fill="#4499DD"/>
    <path d="M30.9375 6.28125C29.8906 7.6875 28.625 10.2656 26.3438 13.125C22.7969 17.5312 20.875 17.2344 19.8281 17.7812C18.2581 19.1688 16.834 20.7133 15.5781 22.3906L20.7344 26.1562C25.1094 20.1875 27.4531 13.7187 29.2812 9.53125C29.739 8.40238 30.2931 7.31503 30.9375 6.28125Z" fill="url(#paint0_linear_2_266)"/>
    <path d="M32.5 5.15625C29.0937 5.15625 26.7656 23.0938 14.1875 33.1094C17.7188 32.5313 20.7812 41.2969 22.1875 44.8438C28.4375 43.7813 33.4375 31.8281 38.4844 32.0156C41.375 32.125 43.9062 34.9219 46.875 37.6875C40.0938 23.4375 36.9219 5.15625 32.5 5.15625Z" fill="url(#paint1_linear_2_266)"/>
    <defs>
        <linearGradient id="paint0_linear_2_266" x1="26.2547" y1="24.0141" x2="23.4578" y2="14.9828" gradientUnits="userSpaceOnUse">
            <stop stop-color="#551122"/>
            <stop offset="0.23" stop-color="#552233"/>
            <stop offset="0.36" stop-color="#553344"/>
            <stop offset="0.51" stop-color="#664455"/>
            <stop offset="0.66" stop-color="#556688"/>
            <stop offset="0.84" stop-color="#2299DD"/>
        </linearGradient>
        <linearGradient id="paint1_linear_2_266" x1="46.4219" y1="29.6609" x2="18.2969" y2="22.7547" gradientUnits="userSpaceOnUse">
            <stop offset="0.081" stop-color="#CC3333"/>
            <stop offset="0.189" stop-color="#DE5239"/>
            <stop offset="0.313" stop-color="#F06E3E"/>
            <stop offset="0.421" stop-color="#FA8042"/>
            <stop offset="0.5" stop-color="#FE8643"/>
            <stop offset="0.58" stop-color="#FA7F42"/>
            <stop offset="0.696" stop-color="#EF6C3E"/>
            <stop offset="0.833" stop-color="#DC4C37"/>
            <stop offset="0.916" stop-color="#CF3633"/>
        </linearGradient>
    </defs>
</svg>
