<svg width="51" height="51" viewBox="0 0 51 51" fill="none" xmlns="http://www.w3.org/2000/svg">
    <path d="M10.5673 22.2629C14.5673 30.124 21.0117 36.5407 28.8728 40.5685L34.9839 34.4574C35.7339 33.7074 36.8451 33.4574 37.8173 33.7907C40.9284 34.8185 44.2895 35.374 47.7339 35.374C49.2617 35.374 50.5117 36.624 50.5117 38.1518V47.8462C50.5117 49.374 49.2617 50.624 47.7339 50.624C21.6506 50.624 0.511719 29.4851 0.511719 3.4018C0.511719 1.87402 1.76172 0.624023 3.2895 0.624023H13.0117C14.5395 0.624023 15.7895 1.87402 15.7895 3.4018C15.7895 6.87402 16.3451 10.2074 17.3728 13.3185C17.6784 14.2907 17.4562 15.374 16.6784 16.1518L10.5673 22.2629Z" fill="white"/>
</svg>
