<svg width="50" height="50" viewBox="0 0 50 50" fill="none" xmlns="http://www.w3.org/2000/svg">
    <path d="M24.4324 0.00040897C22.3933 0.00988409 20.4459 0.183798 18.7324 0.487C13.6846 1.37877 12.7682 3.24532 12.7682 6.68756V11.2337H24.6966V12.7491H12.7682H8.29152C4.82479 12.7491 1.78922 14.8328 0.839733 18.7967C-0.25549 23.3403 -0.304069 26.1756 0.839733 30.9198C1.68765 34.4512 3.71258 36.9674 7.17932 36.9674H11.2806V31.5176C11.2806 27.5804 14.6871 24.1075 18.7324 24.1075H30.6469C33.9635 24.1075 36.6111 21.3767 36.6111 18.046V6.68756C36.6111 3.45489 33.884 1.02652 30.6469 0.487C28.5978 0.145897 26.4716 -0.00906629 24.4324 0.00040897ZM17.9816 3.65679C19.2138 3.65679 20.22 4.67942 20.22 5.93682C20.22 7.18976 19.2138 8.20294 17.9816 8.20294C16.7451 8.20294 15.7433 7.18976 15.7433 5.93682C15.7433 4.67942 16.7451 3.65679 17.9816 3.65679Z" fill="url(#paint0_linear_2_257)"/>
    <path d="M38.0987 12.7491V18.046C38.0987 22.1526 34.6171 25.609 30.6469 25.609H18.7324C15.4688 25.609 12.7682 28.4022 12.7682 31.6706V43.029C12.7682 46.2617 15.5792 48.1631 18.7324 49.0905C22.5082 50.2008 26.1291 50.4014 30.6469 49.0905C33.6499 48.2211 36.6111 46.4712 36.6111 43.029V38.4829H24.6966V36.9675H36.6111H42.5753C46.0421 36.9675 47.3339 34.5493 48.5395 30.9198C49.7849 27.1833 49.7319 23.59 48.5395 18.7968C47.6828 15.3456 46.0465 12.7491 42.5753 12.7491H38.0987ZM31.3976 41.5136C32.6342 41.5136 33.636 42.5268 33.636 43.7797C33.636 45.0371 32.6342 46.0598 31.3976 46.0598C30.1655 46.0598 29.1593 45.0371 29.1593 43.7797C29.1593 42.5268 30.1655 41.5136 31.3976 41.5136Z" fill="url(#paint1_linear_2_257)"/>
    <defs>
        <linearGradient id="paint0_linear_2_257" x1="-1.4854e-07" y1="-1.29032e-07" x2="27.5057" y2="23.4386" gradientUnits="userSpaceOnUse">
            <stop stop-color="#5A9FD4"/>
            <stop offset="1" stop-color="#306998"/>
        </linearGradient>
        <linearGradient id="paint1_linear_2_257" x1="31.111" y1="43.3975" x2="21.243" y2="29.5695" gradientUnits="userSpaceOnUse">
            <stop stop-color="#FFD43B"/>
            <stop offset="1" stop-color="#FFE873"/>
        </linearGradient>
    </defs>
</svg>
